<?xml version="1.0" encoding="UTF-8" standalone="no" ?>
<!DOCTYPE svg PUBLIC "-//W3C//DTD SVG 1.1//EN" "http://www.w3.org/Graphics/SVG/1.1/DTD/svg11.dtd">
<svg xmlns="http://www.w3.org/2000/svg" xmlns:xlink="http://www.w3.org/1999/xlink" version="1.1" width="1080" height="1080" viewBox="0 0 1080 1080" xml:space="preserve">
<desc>Created with Fabric.js 5.2.4</desc>
<defs>
</defs>
<g transform="matrix(1 0 0 1 540 540)" id="e6812c00-3533-40a9-a854-2bc1e3c00e99"  >
<rect style="stroke: none; stroke-width: 1; stroke-dasharray: none; stroke-linecap: butt; stroke-dashoffset: 0; stroke-linejoin: miter; stroke-miterlimit: 4; fill: rgb(255,255,255); fill-rule: nonzero; opacity: 1; visibility: hidden;" vector-effect="non-scaling-stroke"  x="-540" y="-540" rx="0" ry="0" width="1080" height="1080" />
</g>
<g transform="matrix(1 0 0 1 540 540)" id="8ca0de8b-92f1-4b69-b1c0-4d035b8cfe3a"  >
</g>
<g transform="matrix(8.06 0 0 8.06 697.53 540)" clip-path="url(#CLIPPATH_3)"  >
<clipPath id="CLIPPATH_3" >
	<path transform="matrix(1 0 0 1 -27.94 0) translate(-66.99, -9.56)" id="eraserLogo_svg__clip0_1108_14881" d="M 0 0 L 133.984 0 L 133.984 19.112 L 0 19.112 z" stroke-linecap="round" />
</clipPath>
<path style="stroke: none; stroke-width: 1; stroke-dasharray: none; stroke-linecap: butt; stroke-dashoffset: 0; stroke-linejoin: miter; stroke-miterlimit: 4; fill: rgb(255,255,255); fill-rule: nonzero; opacity: 1;" vector-effect="non-scaling-stroke"  transform=" translate(-94.93, -9.56)" d="M 63.006 17.28 C 60.888 17.28 59.166 16.61 57.85 15.272000000000002 C 56.533 13.935000000000002 55.871 12.158000000000001 55.871 9.935000000000002 L 55.871 9.525000000000002 C 55.871 8.040000000000003 56.157000000000004 6.709000000000002 56.735 5.5390000000000015 C 57.306 4.3690000000000015 58.115 3.4560000000000013 59.153 2.8080000000000016 C 60.190999999999995 2.1530000000000014 61.347 1.8320000000000016 62.623 1.8320000000000016 C 64.64999999999999 1.8320000000000016 66.218 2.4800000000000018 67.326 3.7760000000000016 C 68.43299999999999 5.072000000000002 68.984 6.905000000000001 68.984 9.274000000000001 L 68.984 10.625 L 59.25 10.625 C 59.348 11.858 59.759 12.827 60.483 13.545 C 61.20099999999999 14.262 62.113 14.617 63.20099999999999 14.617 C 64.734 14.617 65.981 13.997000000000002 66.949 12.757000000000001 L 68.754 14.478000000000002 C 68.15684647396301 15.369371699946512 67.33149264125746 16.084217906515764 66.364 16.548000000000002 C 65.36800000000001 17.035 64.24600000000001 17.279000000000003 63.00600000000001 17.279000000000003 z M 62.609 4.515000000000001 C 61.689 4.515000000000001 60.95 4.835000000000001 60.386 5.476000000000001 C 59.822 6.117000000000001 59.459 7.016000000000001 59.306000000000004 8.159 L 65.68100000000001 8.159 L 65.68100000000001 7.908 C 65.60500000000002 6.7860000000000005 65.31200000000001 5.9430000000000005 64.78900000000002 5.365 C 64.25900000000001 4.807 63.53500000000002 4.515000000000001 62.609000000000016 4.515000000000001 z M 79.38 5.163 C 78.92876292342015 5.086229345175208 78.4717156266297 5.048755481895172 78.014 5.051000000000001 C 76.481 5.051 75.44999999999999 5.636 74.914 6.814 L 74.914 17.006999999999998 L 71.569 17.006999999999998 L 71.569 2.104 L 74.767 2.104 L 74.851 3.769 C 75.659 2.473 76.781 1.8250000000000002 78.209 1.8250000000000002 C 78.683 1.8250000000000002 79.08 1.8880000000000001 79.394 2.02 L 79.38000000000001 5.163 z M 90.123 17.007 C 89.977 16.722 89.845 16.262 89.74000000000001 15.614 C 88.674 16.722 87.37100000000001 17.279 85.831 17.279 C 84.333 17.279 83.114 16.854 82.166 15.997 C 81.219 15.14 80.746 14.087 80.746 12.827 C 80.746 11.238 81.33699999999999 10.019 82.515 9.169 C 83.69200000000001 8.319 85.379 7.894 87.57300000000001 7.894 L 89.62200000000001 7.894 L 89.62200000000001 6.918 C 89.62200000000001 6.1450000000000005 89.40600000000002 5.532 88.97400000000002 5.065 C 88.54200000000002 4.598000000000001 87.88700000000001 4.368 87.00200000000002 4.368 C 86.24200000000002 4.368 85.61500000000002 4.556 85.12800000000003 4.94 C 84.64000000000003 5.323 84.39600000000003 5.804 84.39600000000003 6.396000000000001 L 81.05200000000004 6.396000000000001 C 81.05200000000004 5.581000000000001 81.32300000000004 4.814000000000001 81.86700000000003 4.104000000000001 C 82.41000000000004 3.393000000000001 83.14200000000004 2.835000000000001 84.07600000000004 2.431000000000001 C 85.00900000000004 2.027000000000001 86.04700000000004 1.825000000000001 87.19700000000003 1.825000000000001 C 88.93900000000004 1.825000000000001 90.33200000000004 2.265000000000001 91.37100000000004 3.1420000000000012 C 92.40900000000003 4.020000000000001 92.93800000000003 5.253000000000002 92.96600000000004 6.842000000000001 L 92.96600000000004 13.558000000000002 C 92.96600000000004 14.896 93.15400000000004 15.969000000000001 93.53000000000003 16.770000000000003 L 93.53000000000003 17.007 L 90.12300000000003 17.007 z M 86.45100000000001 14.597000000000001 C 87.11300000000001 14.597000000000001 87.73400000000001 14.437000000000001 88.319 14.116000000000001 C 88.904 13.796000000000001 89.343 13.363000000000001 89.636 12.820000000000002 L 89.636 10.012000000000002 L 87.83 10.012000000000002 C 86.59 10.012000000000002 85.65599999999999 10.228000000000002 85.036 10.660000000000002 C 84.409 11.092000000000002 84.102 11.705000000000002 84.102 12.492000000000003 C 84.102 13.133000000000003 84.318 13.649000000000003 84.74300000000001 14.025000000000002 C 85.16100000000002 14.408000000000001 85.733 14.597000000000001 86.45 14.597000000000001 z M 104.832 12.96 C 104.832 12.360000000000001 104.588 11.907 104.09299999999999 11.594000000000001 C 103.59799999999998 11.280000000000001 102.78999999999999 11.008000000000001 101.648 10.764000000000001 C 100.512 10.528 99.55799999999999 10.221000000000002 98.798 9.859000000000002 C 97.126 9.051000000000002 96.29 7.880000000000002 96.29 6.347000000000001 C 96.29 5.065000000000001 96.83300000000001 3.985000000000001 97.91300000000001 3.1280000000000014 C 98.99300000000001 2.2640000000000016 100.373 1.8320000000000014 102.04500000000002 1.8320000000000014 C 103.82800000000002 1.8320000000000014 105.26400000000001 2.2720000000000016 106.36500000000001 3.1560000000000015 C 107.45800000000001 4.034000000000002 108.00900000000001 5.184000000000001 108.00900000000001 6.584000000000001 L 104.66400000000002 6.584000000000001 C 104.66400000000002 5.944000000000002 104.42800000000001 5.407000000000002 103.94700000000002 4.982000000000001 C 103.46600000000002 4.557000000000001 102.83900000000001 4.341000000000001 102.04500000000002 4.341000000000001 C 101.31300000000002 4.341000000000001 100.71400000000001 4.508000000000001 100.24700000000001 4.849000000000001 C 99.78000000000002 5.191000000000001 99.55000000000001 5.643000000000001 99.55000000000001 6.215000000000002 C 99.55000000000001 6.730000000000001 99.766 7.128000000000002 100.19800000000001 7.413000000000002 C 100.63000000000001 7.699000000000002 101.501 7.985000000000002 102.81800000000001 8.277000000000003 C 104.12800000000001 8.570000000000002 105.159 8.911000000000003 105.912 9.308000000000003 C 106.65700000000001 9.705000000000004 107.215 10.186000000000003 107.57700000000001 10.751000000000003 C 107.93900000000001 11.308000000000003 108.12000000000002 11.991000000000003 108.12000000000002 12.792000000000003 C 108.12000000000002 14.130000000000003 107.56300000000002 15.217000000000002 106.45500000000001 16.046000000000003 C 105.34700000000001 16.875000000000004 103.89100000000002 17.293000000000003 102.08700000000002 17.293000000000003 C 100.86700000000002 17.293000000000003 99.78000000000002 17.070000000000004 98.82600000000002 16.631000000000004 C 97.87100000000002 16.192000000000004 97.12600000000002 15.586000000000004 96.59600000000002 14.813000000000004 C 96.06600000000002 14.039000000000005 95.79500000000002 13.210000000000004 95.79500000000002 12.318000000000005 L 99.04200000000002 12.318000000000005 C 99.09100000000002 13.106000000000005 99.38300000000001 13.718000000000005 99.93400000000001 14.144000000000005 C 100.48400000000001 14.569000000000006 101.21600000000001 14.784000000000006 102.12100000000001 14.784000000000006 C 102.99900000000001 14.784000000000006 103.67500000000001 14.618000000000006 104.135 14.284000000000006 C 104.602 13.942000000000005 104.83200000000001 13.503000000000005 104.83200000000001 12.959000000000007 z M 117.596 17.28 C 115.47800000000001 17.28 113.757 16.61 112.44 15.272000000000002 C 111.123 13.935000000000002 110.461 12.158000000000001 110.461 9.935000000000002 L 110.461 9.525000000000002 C 110.461 8.040000000000003 110.747 6.709000000000002 111.325 5.5390000000000015 C 111.896 4.3690000000000015 112.70400000000001 3.4560000000000013 113.74300000000001 2.8080000000000016 C 114.781 2.1530000000000014 115.93700000000001 1.8320000000000016 117.212 1.8320000000000016 C 119.24000000000001 1.8320000000000016 120.808 2.4800000000000018 121.915 3.7760000000000016 C 123.02300000000001 5.072000000000002 123.57400000000001 6.905000000000001 123.57400000000001 9.274000000000001 L 123.57400000000001 10.625 L 113.84000000000002 10.625 C 113.93800000000002 11.858 114.34900000000002 12.827 115.07300000000002 13.545 C 115.79100000000003 14.262 116.70400000000002 14.617 117.79100000000003 14.617 C 119.32400000000003 14.617 120.57100000000003 13.997000000000002 121.53900000000003 12.757000000000001 L 123.34400000000004 14.478000000000002 C 122.74680951263392 15.369339042794232 121.92146559531871 16.084176661556782 120.95400000000004 16.548000000000002 C 119.95800000000004 17.035 118.83600000000004 17.279000000000003 117.59600000000003 17.279000000000003 z M 117.19800000000001 4.515000000000001 C 116.27900000000001 4.515000000000001 115.54 4.835000000000001 114.97600000000001 5.476000000000001 C 114.41100000000002 6.117000000000001 114.049 7.016000000000001 113.89600000000002 8.159 L 120.27100000000002 8.159 L 120.27100000000002 7.908 C 120.19400000000002 6.7860000000000005 119.90200000000002 5.9430000000000005 119.37900000000002 5.365 C 118.85000000000002 4.807 118.12500000000001 4.515000000000001 117.19800000000002 4.515000000000001 z M 133.97 5.163 C 133.51876166714894 5.086239330136055 133.06171523969857 5.048765538134268 132.60399999999998 5.051000000000001 C 131.071 5.051 130.04 5.636 129.504 6.814 L 129.504 17.006999999999998 L 126.15899999999999 17.006999999999998 L 126.15899999999999 2.104 L 129.357 2.104 L 129.441 3.769 C 130.249 2.473 131.371 1.8250000000000002 132.799 1.8250000000000002 C 133.273 1.8250000000000002 133.67000000000002 1.8880000000000001 133.984 2.02 L 133.97 5.163 z" stroke-linecap="round" />
</g>
<g transform="matrix(8.06 0 0 8.06 29.42 536.42)" clip-path="url(#CLIPPATH_4)"  >
<clipPath id="CLIPPATH_4" >
	<path transform="matrix(1 0 0 1 55.34 0) translate(-66.99, -9.56)" id="eraserLogo_svg__clip0_1108_14881" d="M 0 0 L 133.984 0 L 133.984 19.112 L 0 19.112 z" stroke-linecap="round" />
</clipPath>
<path style="stroke: none; stroke-width: 1; stroke-dasharray: none; stroke-linecap: butt; stroke-dashoffset: 0; stroke-linejoin: miter; stroke-miterlimit: 4; fill: rgb(236,44,64); fill-rule: nonzero; opacity: 1;" vector-effect="non-scaling-stroke"  transform=" translate(-11.65, -9.56)" d="M 23.292 19.112 L 1.45 19.112 C 0.32799999999999985 19.112 -0.3680000000000001 17.516 0.20999999999999996 16.269 L 7.323 0.906 C 7.58 0.34 8.054 0 8.563 0 L 23.299 0 L 23.299 19.112 L 23.291999999999998 19.112 z" stroke-linecap="round" />
</g>
<g transform="matrix(8.06 0 0 8.06 237.35 536.42)" clip-path="url(#CLIPPATH_5)"  >
<clipPath id="CLIPPATH_5" >
	<path transform="matrix(1 0 0 1 29.54 0) translate(-66.99, -9.56)" id="eraserLogo_svg__clip0_1108_14881" d="M 0 0 L 133.984 0 L 133.984 19.112 L 0 19.112 z" stroke-linecap="round" />
</clipPath>
<path style="stroke: none; stroke-width: 1; stroke-dasharray: none; stroke-linecap: butt; stroke-dashoffset: 0; stroke-linejoin: miter; stroke-miterlimit: 4; fill: rgb(0,169,229); fill-rule: nonzero; opacity: 1;" vector-effect="non-scaling-stroke"  transform=" translate(-37.45, -9.56)" d="M 25.8 0 L 47.650000000000006 0 C 48.773 0 49.470000000000006 1.596 48.89000000000001 2.843 L 41.77700000000001 18.206 C 41.519000000000005 18.77 41.04600000000001 19.112 40.537000000000006 19.112 L 25.801 19.112 L 25.801 0 z" stroke-linecap="round" />
</g>
</svg>